<svg width="33" height="33" viewBox="0 0 33 33" fill="none" xmlns="http://www.w3.org/2000/svg">
<path d="M28.05 19.8H31.35C31.7876 19.8 32.2073 19.6262 32.5167 19.3167C32.8262 19.0073 33 18.5876 33 18.15C33 17.7124 32.8262 17.2927 32.5167 16.9833C32.2073 16.6738 31.7876 16.5 31.35 16.5H28.05V14.85C28.0354 14.0899 27.9189 13.3351 27.7035 12.606C29.2544 12.0114 30.5898 10.9624 31.5348 9.59645C32.4798 8.23045 32.9905 6.611 33 4.95C33 4.51239 32.8262 4.09271 32.5167 3.78327C32.2073 3.47384 31.7876 3.3 31.35 3.3C30.9124 3.3 30.4927 3.47384 30.1833 3.78327C29.8738 4.09271 29.7 4.51239 29.7 4.95C29.6985 6.01399 29.3543 7.0492 28.7183 7.90217C28.0823 8.75515 27.1883 9.38049 26.169 9.6855C25.3552 8.64266 24.3027 7.81077 23.1 7.26C23.1171 7.04033 23.1171 6.81967 23.1 6.6C23.1 4.84957 22.4046 3.17084 21.1669 1.9331C19.9292 0.695355 18.2504 0 16.5 0C14.7496 0 13.0708 0.695355 11.8331 1.9331C10.5954 3.17084 9.9 4.84957 9.9 6.6C9.88292 6.81967 9.88292 7.04033 9.9 7.26C8.67342 7.80172 7.59736 8.63425 6.765 9.6855C5.75797 9.36881 4.87856 8.73846 4.25518 7.88652C3.63181 7.03457 3.29712 6.00565 3.3 4.95C3.3 4.51239 3.12616 4.09271 2.81673 3.78327C2.50729 3.47384 2.08761 3.3 1.65 3.3C1.21239 3.3 0.792709 3.47384 0.483274 3.78327C0.173839 4.09271 0 4.51239 0 4.95C0.00951415 6.611 0.520187 8.23045 1.4652 9.59645C2.41021 10.9624 3.74555 12.0114 5.2965 12.606C5.08113 13.3351 4.96459 14.0899 4.95 14.85V16.5H1.65C1.21239 16.5 0.792709 16.6738 0.483274 16.9833C0.173839 17.2927 0 17.7124 0 18.15C0 18.5876 0.173839 19.0073 0.483274 19.3167C0.792709 19.6262 1.21239 19.8 1.65 19.8H4.95V21.45C4.95143 22.2148 5.0288 22.9775 5.181 23.727C3.65686 24.3378 2.34966 25.3895 1.42668 26.7475C0.50371 28.1055 0.00695592 29.708 0 31.35C0 31.7876 0.173839 32.2073 0.483274 32.5167C0.792709 32.8262 1.21239 33 1.65 33C2.08761 33 2.50729 32.8262 2.81673 32.5167C3.12616 32.2073 3.3 31.7876 3.3 31.35C3.30446 30.3877 3.58932 29.4475 4.11974 28.6446C4.65015 27.8416 5.40312 27.2107 6.2865 26.829C7.26776 28.6873 8.73742 30.2426 10.5372 31.3275C12.3369 32.4124 14.3985 32.9858 16.5 32.9858C18.6015 32.9858 20.6631 32.4124 22.4628 31.3275C24.2626 30.2426 25.7322 28.6873 26.7135 26.829C27.5969 27.2107 28.3498 27.8416 28.8803 28.6446C29.4107 29.4475 29.6955 30.3877 29.7 31.35C29.7 31.7876 29.8738 32.2073 30.1833 32.5167C30.4927 32.8262 30.9124 33 31.35 33C31.7876 33 32.2073 32.8262 32.5167 32.5167C32.8262 32.2073 33 31.7876 33 31.35C32.993 29.708 32.4963 28.1055 31.5733 26.7475C30.6503 25.3895 29.3431 24.3378 27.819 23.727C27.9712 22.9775 28.0486 22.2148 28.05 21.45V19.8ZM14.85 29.535C12.9865 29.1546 11.3117 28.1421 10.109 26.6688C8.90634 25.1955 8.24961 23.3519 8.25 21.45V14.85C8.25 13.5372 8.77152 12.2781 9.69982 11.3498C10.6281 10.4215 11.8872 9.9 13.2 9.9H14.85V29.535ZM13.2 6.6C13.2 5.72479 13.5477 4.88542 14.1665 4.26655C14.7854 3.64768 15.6248 3.3 16.5 3.3C17.3752 3.3 18.2146 3.64768 18.8335 4.26655C19.4523 4.88542 19.8 5.72479 19.8 6.6H13.2ZM24.75 21.45C24.7504 23.3519 24.0937 25.1955 22.891 26.6688C21.6883 28.1421 20.0135 29.1546 18.15 29.535V9.9H19.8C21.1128 9.9 22.3719 10.4215 23.3002 11.3498C24.2285 12.2781 24.75 13.5372 24.75 14.85V21.45Z" fill="#1A6AFC"/>
</svg>
