<svg width="39" height="39" viewBox="0 0 39 39" fill="none" xmlns="http://www.w3.org/2000/svg">
<path d="M32.9062 29.25C32.3631 29.2527 31.8276 29.3781 31.3397 29.6166L26.0984 24.375H21.9375V26.8125H25.0891L29.6162 31.3399C29.3781 31.8279 29.2529 32.3633 29.25 32.9062C29.25 33.6294 29.4644 34.3363 29.8662 34.9376C30.2679 35.5388 30.839 36.0075 31.5071 36.2842C32.1752 36.5609 32.9103 36.6333 33.6195 36.4922C34.3288 36.3512 34.9803 36.0029 35.4916 35.4916C36.0029 34.9803 36.3512 34.3288 36.4922 33.6195C36.6333 32.9103 36.5609 32.1752 36.2842 31.5071C36.0075 30.839 35.5388 30.2679 34.9376 29.8662C34.3363 29.4644 33.6294 29.25 32.9062 29.25ZM32.9062 34.125C32.6652 34.125 32.4296 34.0535 32.2291 33.9196C32.0287 33.7857 31.8725 33.5953 31.7803 33.3726C31.688 33.1499 31.6639 32.9049 31.7109 32.6685C31.7579 32.4321 31.874 32.2149 32.0445 32.0445C32.2149 31.874 32.4321 31.7579 32.6685 31.7109C32.9049 31.6639 33.1499 31.688 33.3726 31.7803C33.5953 31.8725 33.7857 32.0287 33.9196 32.2291C34.0535 32.4296 34.125 32.6652 34.125 32.9062C34.1247 33.2294 33.9962 33.5392 33.7677 33.7677C33.5392 33.9962 33.2294 34.1247 32.9062 34.125Z" fill="#1A6AFC"/>
<path d="M32.9062 15.8438C32.1526 15.846 31.4181 16.0816 30.8037 16.518C30.1892 16.9544 29.725 17.5704 29.4746 18.2813H21.9375V20.7188H29.4746C29.6992 21.3489 30.0927 21.9053 30.612 22.327C31.1314 22.7487 31.7567 23.0195 32.4196 23.1099C33.0824 23.2003 33.7574 23.1067 34.3707 22.8394C34.984 22.5722 35.512 22.1415 35.8971 21.5944C36.2822 21.0474 36.5095 20.405 36.5542 19.7375C36.599 19.07 36.4593 18.403 36.1506 17.8095C35.842 17.2159 35.3761 16.7187 34.8039 16.372C34.2317 16.0253 33.5753 15.8426 32.9062 15.8438ZM32.9062 20.7188C32.6652 20.7188 32.4296 20.6473 32.2291 20.5134C32.0287 20.3794 31.8725 20.1891 31.7803 19.9664C31.688 19.7437 31.6639 19.4987 31.7109 19.2622C31.7579 19.0258 31.874 18.8087 32.0445 18.6382C32.2149 18.4678 32.4321 18.3517 32.6685 18.3047C32.9049 18.2576 33.1499 18.2818 33.3726 18.374C33.5953 18.4663 33.7857 18.6225 33.9196 18.8229C34.0535 19.0233 34.125 19.259 34.125 19.5C34.1247 19.8231 33.9962 20.133 33.7677 20.3615C33.5392 20.59 33.2294 20.7185 32.9062 20.7188Z" fill="#1A6AFC"/>
<path d="M32.9062 2.4375C31.9369 2.43856 31.0075 2.82412 30.3221 3.50957C29.6366 4.19502 29.2511 5.12438 29.25 6.09375C29.2542 6.67761 29.3998 7.25177 29.6742 7.76709L25.101 12.1875H21.9375V14.625H26.0865L31.4476 9.44239C31.9457 9.65948 32.4859 9.7628 33.0289 9.74483C33.5719 9.72686 34.104 9.58806 34.5866 9.33851C35.0692 9.08897 35.4901 8.73497 35.8187 8.30227C36.1472 7.86958 36.3752 7.36907 36.4859 6.83718C36.5967 6.30529 36.5874 5.7554 36.4589 5.22753C36.3304 4.69966 36.0858 4.20708 35.7429 3.78565C35.4 3.36422 34.9675 3.02454 34.4768 2.79133C33.9861 2.55812 33.4495 2.43724 32.9062 2.4375ZM32.9062 7.3125C32.6652 7.3125 32.4296 7.24102 32.2291 7.1071C32.0287 6.97319 31.8725 6.78284 31.7803 6.56015C31.688 6.33745 31.6639 6.0924 31.7109 5.85598C31.7579 5.61957 31.874 5.40241 32.0445 5.23196C32.2149 5.06152 32.4321 4.94544 32.6685 4.89842C32.9049 4.85139 33.1499 4.87553 33.3726 4.96777C33.5953 5.06002 33.7857 5.21623 33.9196 5.41665C34.0535 5.61707 34.125 5.8527 34.125 6.09375C34.1247 6.41689 33.9962 6.72672 33.7677 6.95522C33.5392 7.18371 33.2294 7.31221 32.9062 7.3125Z" fill="#1A6AFC"/>
<path d="M21.9375 7.3125H24.375V4.875H21.9375C21.2429 4.87733 20.557 5.02897 19.9261 5.31964C19.2953 5.61031 18.7343 6.03321 18.2813 6.55968C17.8282 6.03321 17.2672 5.61031 16.6364 5.31964C16.0055 5.02897 15.3196 4.87733 14.625 4.875H13.4063C10.4981 4.87823 7.71008 6.03489 5.65374 8.09124C3.59739 10.1476 2.44073 12.9356 2.4375 15.8438V23.1562C2.44073 26.0644 3.59739 28.8524 5.65374 30.9088C7.71008 32.9651 10.4981 34.1218 13.4063 34.125H14.625C15.3196 34.1227 16.0055 33.971 16.6364 33.6804C17.2672 33.3897 17.8282 32.9668 18.2813 32.4403C18.7343 32.9668 19.2953 33.3897 19.9261 33.6804C20.557 33.971 21.2429 34.1227 21.9375 34.125H24.375V31.6875H21.9375C21.2913 31.6868 20.6717 31.4297 20.2147 30.9728C19.7578 30.5158 19.5007 29.8962 19.5 29.25V9.75C19.5007 9.10376 19.7578 8.48421 20.2147 8.02725C20.6717 7.57029 21.2913 7.31324 21.9375 7.3125ZM14.625 31.6875H13.4063C11.3568 31.6839 9.37709 30.9432 7.82866 29.6006C6.28023 28.258 5.26645 26.4032 4.9725 24.375H7.3125V21.9375H4.875V17.0625H8.53125C9.50062 17.0614 10.43 16.6759 11.1154 15.9904C11.8009 15.305 12.1864 14.3756 12.1875 13.4062V10.9688H9.75V13.4062C9.74971 13.7294 9.62121 14.0392 9.39272 14.2677C9.16422 14.4962 8.85439 14.6247 8.53125 14.625H4.9725C5.26645 12.5968 6.28023 10.742 7.82866 9.39939C9.37709 8.05682 11.3568 7.31609 13.4063 7.3125H14.625C15.2712 7.31324 15.8908 7.57029 16.3478 8.02725C16.8047 8.48421 17.0618 9.10376 17.0625 9.75V14.625H14.625V17.0625H17.0625V21.9375H14.625C13.6556 21.9386 12.7263 22.3241 12.0408 23.0096C11.3554 23.695 10.9698 24.6244 10.9688 25.5938V28.0312H13.4063V25.5938C13.4065 25.2706 13.535 24.9608 13.7635 24.7323C13.992 24.5038 14.3019 24.3753 14.625 24.375H17.0625V29.25C17.0618 29.8962 16.8047 30.5158 16.3478 30.9728C15.8908 31.4297 15.2712 31.6868 14.625 31.6875Z" fill="#1A6AFC"/>
</svg>
