<svg width="43" height="43" viewBox="0 0 43 43" fill="none" xmlns="http://www.w3.org/2000/svg">
<path d="M26.8074 4.19691e-05C35.7503 4.19691e-05 43 7.2497 43 16.1926C43 25.1356 35.7503 32.3851 26.8074 32.3851C17.8645 32.3851 10.6149 25.1355 10.6149 16.1926C10.6259 7.25415 17.8689 0.0110439 26.8064 0H26.8074L26.8074 4.19691e-05ZM26.8074 29.4901C34.1515 29.4901 40.1051 23.5366 40.1051 16.1925C40.1051 8.84838 34.1514 2.89503 26.8074 2.89503C19.4634 2.89503 13.5099 8.84855 13.5099 16.1926C13.5208 23.5323 19.4678 29.4793 26.8064 29.4903H26.8074L26.8074 29.4901ZM2.04586 43L0 40.9543L15.6522 25.3021L17.6979 27.3479L2.04586 43ZM26.8074 9.20607C29.6414 9.20935 31.9379 11.5059 31.9412 14.3395V19.8596C31.9412 22.6949 29.6427 24.9933 26.8074 24.9933C23.9721 24.9933 21.6737 22.6949 21.6737 19.8596V14.3398C21.677 11.5059 23.9735 9.20935 26.8071 9.20607H26.8075H26.8074ZM26.8074 22.0983C28.0434 22.0973 29.0452 21.0956 29.0462 19.8597V14.3398C29.0462 13.1033 28.0439 12.101 26.8074 12.101C25.571 12.101 24.5687 13.1034 24.5687 14.3398V19.8595C24.5698 21.0955 25.5715 22.0972 26.8074 22.0983H26.8075L26.8074 22.0983ZM23.1212 15.7873H19.4542V12.8924H23.1212V15.7873ZM34.18 15.7873H30.4938V12.8924H34.18L34.18 15.7873ZM23.1212 23.1599H19.4543V20.2648H23.1212V23.1599ZM34.18 23.1599H30.4938V20.2648H34.1801L34.18 23.1599ZM23.6809 11.3039L21.8281 7.61763L24.4143 6.3168L26.267 10.0031L23.6809 11.3039ZM29.9572 11.2981L27.3633 10.0089L29.1967 6.32268L31.7906 7.61184L29.9572 11.2981Z" fill="#1A6AFC"/>
</svg>
